<?xml version="1.0" standalone="no"?>
<!DOCTYPE svg PUBLIC "-//W3C//DTD SVG 20010904//EN"
 "http://www.w3.org/TR/2001/REC-SVG-20010904/DTD/svg10.dtd">
<svg version="1.0" xmlns="http://www.w3.org/2000/svg"
 width="300.000000pt" height="300.000000pt" viewBox="0 0 300.000000 300.000000"
 preserveAspectRatio="xMidYMid meet">
<metadata>
Created by potrace 1.10, written by Peter Selinger 2001-2011
</metadata>
<g transform="translate(0.000000,300.000000) scale(0.100000,-0.100000)"
fill="#000000" stroke="none">
<path d="M1881 2607 c-9 -11 -8 -17 3 -26 18 -15 48 -3 44 18 -4 21 -32 26
-47 8z"/>
<path d="M704 2587 c-3 -8 -4 -49 -2 -93 l3 -79 54 0 c40 1 57 6 67 20 18 24
18 30 -1 49 -12 12 -13 20 -5 35 18 34 12 61 -16 71 -37 14 -94 12 -100 -3z
m84 -41 c4 -19 -13 -36 -35 -36 -14 0 -18 42 -6 54 12 12 38 1 41 -18z m7 -66
c9 -15 -14 -40 -36 -40 -14 0 -19 7 -19 25 0 20 5 25 24 25 14 0 28 -5 31 -10z"/>
<path d="M1757 2593 c-25 -6 -40 -49 -27 -74 6 -10 22 -22 35 -25 13 -3 30
-13 36 -21 20 -23 -10 -36 -39 -17 -18 12 -27 13 -36 4 -14 -15 26 -50 58 -50
33 0 66 28 66 56 0 20 -8 29 -39 41 -46 18 -57 36 -34 55 13 11 18 9 31 -10
18 -27 42 -29 42 -3 0 36 -45 57 -93 44z"/>
<path d="M2037 2594 c-4 -4 -4 -18 -1 -31 6 -22 5 -23 -20 -12 -38 18 -66 -10
-66 -67 0 -60 31 -89 70 -64 9 5 19 5 27 -2 21 -17 25 -4 26 89 1 71 -2 89
-14 91 -8 1 -18 0 -22 -4z m1 -102 c2 -13 -2 -29 -8 -37 -19 -23 -40 -6 -40
32 0 30 3 34 23 31 14 -2 23 -11 25 -26z"/>
<path d="M1083 2554 c4 -21 16 -51 27 -66 11 -15 20 -39 20 -53 0 -18 5 -25
20 -25 15 0 20 7 20 25 0 14 9 39 21 54 25 34 31 96 9 96 -9 0 -17 -14 -21
-38 -11 -72 -37 -70 -49 3 -4 27 -11 36 -29 38 -22 4 -24 1 -18 -34z"/>
<path d="M867 2553 c-3 -4 -2 -35 2 -67 7 -70 28 -91 60 -61 25 22 37 15 21
-14 -7 -14 -21 -21 -41 -21 -28 0 -50 -23 -35 -37 13 -14 70 -3 90 17 18 17
21 33 21 103 0 74 -2 82 -19 82 -16 0 -19 -8 -20 -50 -1 -43 -4 -50 -21 -50
-17 0 -20 7 -20 50 0 38 -4 50 -17 53 -9 2 -18 -1 -21 -5z"/>
<path d="M1260 2540 c-48 -48 -10 -138 54 -126 52 10 71 58 45 109 -23 43 -66
50 -99 17z m66 -34 c8 -35 -4 -68 -24 -64 -17 3 -28 48 -18 74 9 23 35 16 42
-10z"/>
<path d="M1398 2553 c-2 -4 -2 -36 0 -70 3 -51 7 -63 23 -68 11 -4 26 -1 34 5
12 10 18 10 30 0 26 -21 36 2 33 71 -3 56 -5 64 -23 64 -17 0 -20 -6 -17 -40
3 -47 -9 -70 -33 -61 -13 5 -16 16 -13 53 2 38 0 48 -14 51 -9 2 -18 -1 -20
-5z"/>
<path d="M1554 2546 c-3 -7 -4 -40 -2 -72 2 -46 7 -60 20 -62 14 -3 17 6 20
44 3 42 6 49 28 54 29 7 39 37 14 47 -11 4 -22 -1 -30 -12 -13 -17 -14 -17
-14 -2 0 20 -28 23 -36 3z"/>
<path d="M1884 2547 c-3 -8 -4 -41 -2 -73 2 -47 7 -59 21 -62 16 -3 18 4 15
69 -2 47 -7 74 -15 77 -7 2 -15 -3 -19 -11z"/>
<path d="M2128 2549 c-20 -11 -33 -67 -23 -98 3 -12 16 -26 27 -32 25 -14 84
-3 92 16 4 12 -3 15 -36 13 -26 -2 -42 2 -45 10 -3 8 9 12 41 12 42 0 46 2 46
25 0 49 -58 80 -102 54z m60 -42 c3 -12 -3 -17 -22 -17 -25 0 -35 18 -19 34
12 12 38 2 41 -17z"/>
<path d="M1119 2181 c-194 -57 -238 -88 -494 -345 -100 -100 -201 -194 -225
-210 -111 -74 -130 -109 -111 -212 25 -136 127 -267 232 -298 49 -15 52 -14
162 20 167 53 210 49 490 -50 120 -42 226 -76 236 -76 27 0 61 43 61 77 0 48
-42 75 -199 128 -225 75 -342 139 -377 207 -17 33 -74 243 -74 273 0 11 39 78
86 150 l86 130 81 32 c44 18 92 33 105 33 35 0 81 -31 126 -85 34 -42 38 -50
32 -86 -10 -61 15 -99 65 -99 36 0 48 17 61 87 18 100 10 119 -108 243 -59 60
-114 110 -123 109 -9 0 -59 -13 -112 -28z m142 -38 c56 -44 163 -168 171 -198
9 -35 -9 -122 -26 -128 -23 -9 -33 8 -38 64 -4 55 -9 64 -58 118 -56 61 -145
89 -198 62 -9 -5 -39 -17 -65 -26 -62 -22 -99 -54 -137 -118 -48 -82 -55 -92
-61 -97 -19 -14 -59 -107 -59 -134 1 -59 59 -259 88 -304 36 -56 188 -137 372
-199 135 -45 180 -70 180 -99 0 -14 -8 -25 -20 -29 -19 -6 -101 16 -175 46
-17 7 -35 13 -42 15 -6 1 -47 16 -90 32 -132 51 -196 65 -265 59 -75 -6 -82
-7 -181 -42 -93 -32 -142 -26 -196 23 -7 7 -24 20 -36 28 -13 8 -40 49 -61 91
-34 67 -39 85 -39 146 l0 70 85 66 c84 65 136 113 196 181 42 48 188 186 248
235 27 22 56 47 64 54 18 19 112 63 112 53 0 -4 4 -2 8 3 6 9 147 52 178 54 6
1 26 -11 45 -26z"/>
<path d="M1634 2105 c-54 -59 -104 -119 -111 -133 -12 -27 -9 -86 8 -154 12
-45 47 -60 88 -37 24 13 26 21 27 78 l0 63 61 59 c47 45 68 59 91 59 44 0 190
-58 208 -83 90 -125 154 -236 154 -265 0 -40 -46 -224 -65 -262 -39 -76 -140
-134 -380 -215 -77 -27 -152 -56 -166 -66 -35 -24 -44 -61 -24 -99 23 -44 54
-47 143 -15 409 145 379 137 477 131 67 -3 113 -12 178 -36 78 -28 91 -30 129
-19 136 36 248 198 248 359 0 69 -12 86 -101 147 -43 28 -118 97 -187 171
-118 126 -280 272 -354 318 -41 26 -226 90 -289 100 -34 6 -38 3 -135 -101z
m201 46 c152 -42 190 -60 289 -140 38 -31 83 -67 100 -81 17 -13 85 -82 151
-154 66 -71 144 -145 172 -164 29 -19 53 -39 53 -43 0 -5 7 -9 15 -9 9 0 21
-11 27 -25 6 -14 15 -25 19 -25 10 0 3 -89 -12 -143 -12 -45 -89 -168 -101
-161 -4 2 -10 -2 -15 -9 -4 -7 -30 -24 -57 -37 -43 -20 -54 -22 -95 -12 -25 6
-59 16 -76 23 -16 6 -37 13 -45 15 -8 1 -42 8 -75 14 -79 16 -157 0 -370 -75
-225 -80 -235 -82 -251 -60 -18 24 -3 50 44 74 20 10 39 19 42 18 9 -1 125 36
135 43 6 4 28 13 50 20 132 42 258 126 294 197 10 20 44 147 60 223 14 69 0
107 -75 213 -19 26 -34 52 -34 57 0 6 -4 10 -10 10 -5 0 -10 6 -10 13 -1 18
-41 62 -75 80 -98 54 -191 70 -243 43 -29 -16 -121 -106 -108 -106 5 0 2 -7
-5 -17 -8 -9 -14 -26 -15 -37 -3 -75 -3 -77 -26 -74 -19 2 -25 12 -32 55 -6
36 -5 61 3 81 12 28 184 212 198 212 5 0 40 -9 78 -19z"/>
<path d="M1111 1962 c-69 -18 -99 -45 -38 -35 36 5 77 -11 135 -54 27 -20 32
-30 32 -67 0 -50 28 -86 65 -86 31 0 31 3 1 35 -27 29 -39 75 -30 112 5 20 -2
33 -37 69 -24 24 -48 44 -54 43 -5 -1 -39 -8 -74 -17z"/>
<path d="M1750 1940 c-36 -39 -40 -49 -40 -96 0 -41 -5 -59 -25 -82 -31 -37
-31 -42 -1 -42 32 0 56 35 56 80 0 65 81 122 185 133 27 3 24 5 -25 20 -112
33 -107 34 -150 -13z"/>
<path d="M1749 848 c-1 -7 0 -25 1 -40 1 -22 -3 -28 -19 -28 -12 0 -21 -4 -21
-10 0 -5 9 -10 20 -10 17 0 20 -7 20 -45 0 -25 5 -45 10 -45 6 0 10 20 10 45
0 38 3 45 20 45 11 0 20 5 20 10 0 6 -9 10 -20 10 -16 0 -20 7 -20 34 0 33
-19 63 -21 34z"/>
<path d="M1116 828 c-42 -9 -76 -33 -76 -53 0 -7 27 -18 60 -25 34 -7 59 -17
57 -23 -2 -6 -21 -17 -43 -24 -29 -11 -43 -11 -57 -3 -26 16 -37 2 -13 -16 27
-19 44 -18 96 9 60 29 58 48 -7 67 -29 9 -55 19 -59 23 -9 8 40 27 71 27 26 0
42 15 22 22 -6 3 -30 1 -51 -4z"/>
<path d="M1270 793 c-28 -10 -60 -47 -60 -69 0 -52 57 -70 104 -33 26 20 35
61 18 85 -9 15 -43 24 -62 17z m48 -30 c6 -10 6 -28 1 -40 -7 -19 -16 -23 -49
-23 -31 0 -40 4 -40 18 0 22 10 36 35 50 28 16 43 15 53 -5z"/>
<path d="M1421 786 c-68 -22 -88 -86 -34 -107 38 -14 141 17 121 37 -3 2 -24
-3 -48 -11 -24 -8 -52 -13 -62 -9 -48 15 7 83 57 70 18 -5 25 -2 25 8 0 21
-21 25 -59 12z"/>
<path d="M1530 741 c0 -33 5 -63 10 -66 6 -4 10 18 10 59 0 37 -4 66 -10 66
-6 0 -10 -26 -10 -59z"/>
<path d="M1591 779 c-17 -16 -21 -30 -19 -57 4 -49 38 -62 91 -37 46 22 39 39
-8 19 -39 -16 -67 -9 -63 15 2 11 16 17 46 19 49 4 67 27 37 48 -27 20 -58 17
-84 -7z m73 -8 c7 -11 -52 -26 -62 -16 -8 8 18 25 40 25 9 0 19 -4 22 -9z"/>
<path d="M1915 750 c-9 -27 -18 -50 -19 -50 -2 0 -16 18 -31 40 -27 39 -45 51
-45 29 0 -6 14 -29 32 -51 l31 -40 -16 -51 c-10 -32 -13 -55 -7 -61 6 -6 11
-4 14 5 86 242 82 229 67 229 -5 0 -17 -22 -26 -50z"/>
</g>
</svg>
